# This file uses centimeters as units for non-parametric coordinates.

mtllib InnerCorner_LP.mtl
g default
v 0.000364 0.000000 -3.000000
v 0.000364 0.590676 -3.000000
v 1.000000 1.000000 0.000000
v 0.500000 1.000000 0.000000
v 0.000000 0.590666 0.000000
v 1.000000 0.000000 0.000000
v 0.500000 0.000000 0.000000
v 0.000000 0.000000 0.000000
v 1.007565 1.000000 -2.001000
v 0.504134 1.000000 -2.500513
v 1.007565 0.000000 -2.001000
v 0.504134 0.000000 -2.500513
v 3.000000 0.000000 -2.000000
v 3.000000 0.000000 -2.500000
v 3.000000 0.000000 -3.000000
v 3.000000 1.000000 -2.000000
v 3.000000 1.000000 -2.500000
v 3.000000 0.590666 -3.000000
vt 0.902375 0.516300
vt 0.810516 0.516300
vt 0.210368 0.728819
vt 0.328013 0.728819
vt 0.810521 0.982807
vt 0.980122 0.982807
vt 0.476785 0.982807
vt 0.902371 0.982807
vt 0.092686 0.632645
vt 0.092686 0.493575
vt 0.632287 0.982807
vt 0.328013 0.493575
vt 0.210368 0.493575
vt 0.710038 0.982807
vt 0.399034 0.982807
vt 0.632287 0.671491
vt 0.710038 0.593892
vt 0.476785 0.671491
vt 0.399034 0.593892
vt 0.980122 0.593892
vt 0.107599 0.766019
vt 0.217152 0.766019
vt 0.217152 0.985491
vt 0.107599 0.985491
vt 0.326405 0.766019
vt 0.326405 0.894704
vt 0.632287 0.026019
vt 0.710038 0.026019
vt 0.710038 0.413488
vt 0.632287 0.334670
vt 0.810521 0.026019
vt 0.810521 0.492416
vt 0.902371 0.026019
vt 0.902371 0.492416
vt 0.476785 0.334670
vt 0.399034 0.413488
vt 0.399034 0.026019
vt 0.476785 0.026019
vt 0.980122 0.413488
vt 0.980122 0.026019
vn 0.000000 0.000000 1.000000
vn 0.000000 0.000000 1.000000
vn 0.000000 0.000000 1.000000
vn 0.000000 0.000000 1.000000
vn 0.000000 0.000000 1.000000
vn 0.000000 0.000000 1.000000
vn 0.000000 -1.000000 0.000000
vn 0.000000 -1.000000 0.000000
vn 0.000000 -1.000000 0.000000
vn 0.000000 -1.000000 0.000000
vn 0.000000 -1.000000 0.000000
vn 0.000000 -1.000000 0.000000
vn -1.000000 0.000000 -0.000121
vn -1.000000 0.000000 -0.000121
vn -1.000000 0.000000 -0.000121
vn -1.000000 0.000000 -0.000121
vn 0.999993 0.000000 0.003781
vn 0.707107 0.000000 0.707107
vn 0.707107 0.000000 0.707107
vn 0.999993 0.000000 0.003781
vn 0.000000 1.000000 0.000000
vn -0.288934 0.912376 -0.289979
vn -0.409307 0.912397 -0.000334
vn 0.000000 1.000000 0.000000
vn -0.355169 0.865766 -0.352567
vn -0.631877 0.775069 -0.000515
vn 1.000000 0.000000 0.000000
vn 1.000000 0.000000 0.000000
vn 1.000000 0.000000 0.000000
vn 1.000000 0.000000 0.000000
vn 1.000000 0.000000 0.000000
vn 1.000000 0.000000 0.000000
vn 0.000000 1.000000 0.000000
vn 0.000039 0.911632 -0.411008
vn 0.000061 0.773602 -0.633671
vn -0.000000 0.000000 -1.000000
vn -0.000000 0.000000 -1.000000
vn -0.000000 0.000000 -1.000000
vn -0.000000 0.000000 -1.000000
vn 0.000000 -1.000000 0.000000
vn 0.000000 -1.000000 0.000000
vn 0.000000 -1.000000 0.000000
vn -0.000502 0.000000 1.000000
vn -0.000502 0.000000 1.000000
s 1
g InnerCorner
usemtl initialShadingGroup
f 3/4/1 4/3/2 7/13/3 6/12/4
f 4/3/2 5/9/5 8/10/6 7/13/3
s 2
f 6/7/7 7/15/8 12/19/9 11/18/10
f 7/6/8 8/8/11 1/1/12 12/20/9
s off
f 1/1/13 8/8/14 5/5/15 2/2/16
s 3
f 6/7/17 11/18/18 9/16/19 3/11/20
s 4
f 9/16/21 10/17/22 4/14/23 3/11/24
f 10/17/22 2/2/25 5/5/26 4/14/23
s 5
f 13/21/27 14/22/28 17/23/29 16/24/30
f 14/22/28 15/25/31 18/26/32 17/23/29
s 4
f 16/27/33 17/28/34 10/29/22 9/30/21
f 17/28/34 18/31/35 2/32/25 10/29/22
s off
f 15/33/36 1/34/37 2/32/38 18/31/39
s 2
f 11/35/10 12/36/9 14/37/40 13/38/41
f 12/39/9 1/34/12 15/33/42 14/40/40
s 3
f 9/30/19 11/35/18 13/38/43 16/27/44
