# This file uses centimeters as units for non-parametric coordinates.

mtllib InsideBend_LP.mtl
g default
v 1.000000 0.000000 0.000000
v 0.500000 0.000000 0.000000
v 0.000000 0.000000 0.000000
v 1.000000 1.000000 0.000000
v 0.500000 1.000000 0.000000
v 0.000000 0.590666 0.000000
v 1.535620 1.000000 -1.502598
v 1.219466 1.000000 -1.891960
v 0.914872 0.590666 -2.292389
v 1.535620 0.000000 -1.502598
v 1.219466 0.000000 -1.891960
v 0.910571 0.000000 -2.288271
v 3.000000 1.000000 -2.003934
v 3.000000 1.000000 -2.503934
v 3.000000 0.590666 -3.003934
v 3.000000 0.000000 -2.003934
v 3.000000 0.000000 -2.503934
v 3.000000 0.000000 -3.003934
v 1.140426 1.000000 -0.853104
v 1.140426 0.000000 -0.853104
v 0.702860 0.000000 -1.067782
v 0.252699 0.000000 -1.270401
v 0.252699 0.590666 -1.270401
v 0.702860 1.000000 -1.067782
v 2.160274 1.000000 -1.882977
v 2.160274 0.000000 -1.882977
v 1.994109 0.000000 -2.369022
v 1.830627 0.000000 -2.857636
v 1.830627 0.590666 -2.857636
v 1.994109 1.000000 -2.369022
v 2.552716 0.000000 -1.974079
v 2.552716 1.000000 -1.974079
v 2.462340 1.000000 -2.471336
v 2.373216 0.590666 -2.969791
v 2.373216 0.000000 -2.969791
v 2.462340 0.000000 -2.471336
v 1.820160 1.000000 -1.726954
v 1.820160 0.000000 -1.726954
v 1.576490 0.000000 -2.175352
v 1.342451 0.000000 -2.632971
v 1.349364 0.590666 -2.639590
v 1.576490 1.000000 -2.175352
v 1.308286 0.000000 -1.209626
v 1.308286 1.000000 -1.209626
v 0.926958 1.000000 -1.520355
v 0.544277 0.590666 -1.829787
v 0.542248 0.000000 -1.827844
v 0.926958 0.000000 -1.520355
v 1.035944 1.000000 -0.444293
v 1.035944 0.000000 -0.444293
v 0.554180 0.000000 -0.550100
v 0.063787 0.000000 -0.647645
v 0.063787 0.590666 -0.647645
v 0.554180 1.000000 -0.550100
v 1.009066 1.000000 -0.225358
v 1.009066 0.000000 -0.225358
v 0.513578 0.000000 -0.276381
v 0.015985 0.000000 -0.325389
v 0.015985 0.590666 -0.325389
v 0.513578 1.000000 -0.276381
v 1.079957 0.000000 -0.654298
v 1.079957 1.000000 -0.654298
v 0.618554 1.000000 -0.815781
v 0.142946 0.590666 -0.963663
v 0.142946 0.000000 -0.963663
v 0.618554 0.000000 -0.815781
v 1.216718 1.000000 -1.038749
v 1.216718 0.000000 -1.038749
v 0.805988 0.000000 -1.303392
v 0.386937 0.000000 -1.560069
v 0.387951 0.590666 -1.561039
v 0.805988 1.000000 -1.303392
v 1.414694 0.000000 -1.364516
v 1.414694 1.000000 -1.364516
v 1.064978 1.000000 -1.716936
v 0.720280 0.590666 -2.074162
v 0.717389 0.000000 -2.071393
v 1.064978 0.000000 -1.716936
v 1.670835 1.000000 -1.623440
v 1.670835 0.000000 -1.623440
v 1.390045 0.000000 -2.044803
v 1.121778 0.000000 -2.478156
v 1.127266 0.590666 -2.483410
v 1.390045 1.000000 -2.044803
v 1.983403 0.000000 -1.813334
v 1.983403 1.000000 -1.813334
v 1.778646 1.000000 -2.283919
v 1.585467 0.590666 -2.765590
v 1.578434 0.000000 -2.758855
v 1.778646 0.000000 -2.283919
v 2.350296 1.000000 -1.936386
v 2.350296 0.000000 -1.936386
v 2.220440 0.000000 -2.429492
v 2.092864 0.000000 -2.924781
v 2.092864 0.590666 -2.924781
v 2.220440 1.000000 -2.429492
v 2.766425 0.000000 -1.996496
v 2.766425 1.000000 -1.996496
v 2.719268 1.000000 -2.495861
v 2.672460 0.590666 -2.995561
v 2.672460 0.000000 -2.995561
v 2.719268 0.000000 -2.495861
vt 0.476785 0.019544
vt 0.399034 0.019544
vt 0.710038 0.019543
vt 0.632287 0.019543
vt 0.902371 0.019544
vt 0.810521 0.019544
vt 0.810521 0.486050
vt 0.980122 0.486050
vt 0.476785 0.486050
vt 0.902371 0.486050
vt 0.632287 0.486050
vt 0.710038 0.486050
vt 0.326405 0.265496
vt 0.326405 0.394181
vt 0.107599 0.265496
vt 0.107599 0.484968
vt 0.217152 0.484968
vt 0.217152 0.265496
vt 0.399034 0.486050
vt 0.980122 0.019544
vt 0.632287 0.511933
vt 0.710038 0.511933
vt 0.710038 0.978440
vt 0.632287 0.978440
vt 0.810521 0.511933
vt 0.810521 0.978440
vt 0.328013 0.746004
vt 0.210368 0.746004
vt 0.210368 0.510760
vt 0.328013 0.510760
vt 0.092686 0.649830
vt 0.092686 0.510760
vt 0.476785 0.978440
vt 0.399034 0.978440
vt 0.399034 0.511933
vt 0.476785 0.511933
vt 0.980122 0.978440
vt 0.902371 0.978440
vt 0.902371 0.511933
vt 0.980122 0.511933
vt 0.632287 0.252797
vt 0.476785 0.252797
vt 0.399034 0.252797
vt 0.980122 0.252797
vt 0.902371 0.252797
vt 0.810521 0.252797
vt 0.710038 0.252797
vt 0.632287 0.745186
vt 0.476785 0.745186
vt 0.399034 0.745186
vt 0.980122 0.745186
vt 0.902371 0.745186
vt 0.810521 0.745186
vt 0.710038 0.745186
vt 0.476785 0.861813
vt 0.632287 0.861813
vt 0.710038 0.861813
vt 0.810521 0.861813
vt 0.902371 0.861813
vt 0.399034 0.861813
vt 0.980122 0.861813
vt 0.632287 0.628560
vt 0.476785 0.628560
vt 0.399034 0.628560
vt 0.980122 0.628560
vt 0.902371 0.628560
vt 0.810521 0.628560
vt 0.710038 0.628560
vt 0.476785 0.369423
vt 0.632287 0.369423
vt 0.710038 0.369423
vt 0.810521 0.369423
vt 0.902371 0.369423
vt 0.399034 0.369423
vt 0.980122 0.369423
vt 0.632287 0.136170
vt 0.476785 0.136170
vt 0.399034 0.136170
vt 0.980122 0.136170
vt 0.902371 0.136170
vt 0.810521 0.136170
vt 0.710038 0.136170
vt 0.632287 0.077857
vt 0.476785 0.077857
vt 0.399034 0.077857
vt 0.980122 0.077857
vt 0.902371 0.077857
vt 0.810521 0.077857
vt 0.710038 0.077857
vt 0.476785 0.194483
vt 0.632287 0.194483
vt 0.710038 0.194483
vt 0.810521 0.194483
vt 0.902371 0.194483
vt 0.399034 0.194483
vt 0.980122 0.194483
vt 0.632287 0.311110
vt 0.476785 0.311110
vt 0.399034 0.311110
vt 0.980122 0.311110
vt 0.902371 0.311110
vt 0.810521 0.311110
vt 0.710038 0.311110
vt 0.476785 0.427737
vt 0.632287 0.427737
vt 0.710038 0.427737
vt 0.810521 0.427737
vt 0.902371 0.427737
vt 0.399034 0.427737
vt 0.980122 0.427737
vt 0.632287 0.570246
vt 0.476785 0.570246
vt 0.399034 0.570246
vt 0.980122 0.570246
vt 0.902371 0.570246
vt 0.810521 0.570246
vt 0.710038 0.570246
vt 0.476785 0.686873
vt 0.632287 0.686873
vt 0.710038 0.686873
vt 0.810521 0.686873
vt 0.902371 0.686873
vt 0.399034 0.686873
vt 0.980122 0.686873
vt 0.632287 0.803500
vt 0.476785 0.803500
vt 0.399034 0.803500
vt 0.980122 0.803500
vt 0.902371 0.803500
vt 0.810521 0.803500
vt 0.710038 0.803500
vt 0.476785 0.920126
vt 0.632287 0.920126
vt 0.710038 0.920126
vt 0.810521 0.920126
vt 0.902371 0.920126
vt 0.399034 0.920126
vt 0.980122 0.920126
vn 0.000000 0.000000 1.000000
vn 0.000000 0.000000 1.000000
vn 0.000000 0.000000 1.000000
vn 0.000000 0.000000 1.000000
vn 0.000000 0.000000 1.000000
vn 0.000000 0.000000 1.000000
vn 0.000000 1.000000 0.000000
vn 0.000000 1.000000 0.000000
vn -0.415813 0.908527 -0.040954
vn -0.416429 0.908938 -0.020458
vn -0.630413 0.773773 -0.062090
vn -0.633157 0.773398 -0.031105
vn 0.000000 -1.000000 0.000000
vn 0.000000 -1.000000 0.000000
vn 0.000000 -1.000000 0.000000
vn 0.000000 -1.000000 0.000000
vn 0.000000 -1.000000 0.000000
vn 0.000000 -1.000000 0.000000
vn -0.998796 0.000000 -0.049068
vn -0.998796 0.000000 -0.049068
vn -0.995185 0.000000 -0.098017
vn -0.995185 0.000000 -0.098017
vn 0.996744 0.000000 0.080638
vn 0.999192 0.000000 0.040197
vn 0.999192 0.000000 0.040197
vn 0.996744 0.000000 0.080638
vn 0.000000 1.000000 0.000000
vn 0.000000 1.000000 0.000000
vn -0.262205 0.908071 -0.326580
vn -0.268996 0.915362 -0.299590
vn -0.389388 0.778115 -0.492864
vn -0.422360 0.774815 -0.470397
vn 1.000000 0.000000 0.000000
vn 1.000000 0.000000 0.000000
vn 1.000000 0.000000 0.000000
vn 1.000000 0.000000 0.000000
vn 1.000000 0.000000 0.000000
vn 1.000000 0.000000 0.000000
vn 0.000000 -1.000000 0.000000
vn 0.000000 -1.000000 0.000000
vn 0.000000 -1.000000 0.000000
vn 0.000000 -1.000000 0.000000
vn 0.000000 -1.000000 0.000000
vn 0.000000 -1.000000 0.000000
vn -0.668639 -0.000359 -0.743587
vn -0.668639 -0.000359 -0.743587
vn -0.623654 -0.001261 -0.781700
vn -0.624418 -0.001246 -0.781090
vn 0.619165 0.000000 0.785261
vn 0.666366 0.000000 0.745625
vn 0.666366 0.000000 0.745625
vn 0.619165 0.000000 0.785261
vn 0.752297 0.000000 0.658825
vn 0.752297 0.000000 0.658825
vn 0.790048 0.000000 0.613045
vn 0.790048 0.000000 0.613045
vn 0.000000 -1.000000 0.000000
vn 0.000000 -1.000000 0.000000
vn 0.000000 -1.000000 0.000000
vn 0.000000 -1.000000 0.000000
vn 0.000000 -1.000000 0.000000
vn 0.000000 -1.000000 0.000000
vn -0.780525 0.000862 -0.625124
vn -0.746546 0.000667 -0.665333
vn -0.746546 0.000667 -0.665333
vn -0.780803 0.000864 -0.624776
vn -0.337860 0.902632 -0.266656
vn -0.335891 0.893464 -0.298162
vn -0.477004 0.770182 -0.423424
vn -0.498842 0.769218 -0.399324
vn 0.000000 1.000000 0.000000
vn 0.000000 1.000000 0.000000
vn 0.031828 0.000000 0.999493
vn 0.031828 0.000000 0.999493
vn 0.066600 0.000000 0.997780
vn 0.066600 0.000000 0.997780
vn 0.000000 -1.000000 0.000000
vn 0.000000 -1.000000 0.000000
vn 0.000000 -1.000000 0.000000
vn 0.000000 -1.000000 0.000000
vn 0.000000 -1.000000 0.000000
vn 0.000000 -1.000000 0.000000
vn -0.054393 0.000000 -0.998520
vn -0.025556 0.000000 -0.999673
vn -0.025556 0.000000 -0.999673
vn -0.054393 0.000000 -0.998520
vn -0.023275 0.912003 -0.409522
vn -0.011091 0.911933 -0.410189
vn -0.017116 0.773959 -0.633005
vn -0.036539 0.774980 -0.630929
vn 0.000000 1.000000 0.000000
vn 0.000000 1.000000 0.000000
vn 0.226130 0.000000 0.974097
vn 0.317982 0.000000 0.948097
vn 0.317982 0.000000 0.948097
vn 0.226130 0.000000 0.974097
vn 0.000000 1.000000 0.000000
vn 0.000000 1.000000 0.000000
vn -0.083775 0.914254 -0.396386
vn -0.123544 0.914639 -0.384931
vn -0.130447 0.780389 -0.611536
vn -0.190388 0.783188 -0.591919
vn -0.303195 -0.001585 -0.952927
vn -0.202425 0.000000 -0.979298
vn -0.202425 0.000000 -0.979298
vn -0.303195 -0.001585 -0.952927
vn 0.000000 -1.000000 0.000000
vn 0.000000 -1.000000 0.000000
vn 0.000000 -1.000000 0.000000
vn 0.000000 -1.000000 0.000000
vn 0.000000 -1.000000 0.000000
vn 0.000000 -1.000000 0.000000
vn 0.416958 0.000000 0.908926
vn 0.416958 0.000000 0.908926
vn 0.000000 -1.000000 0.000000
vn 0.000000 -1.000000 0.000000
vn 0.000000 -1.000000 0.000000
vn -0.414842 -0.003805 -0.909886
vn -0.415957 -0.003817 -0.909377
vn -0.169489 0.914056 -0.368477
vn -0.257559 0.784302 -0.564388
vn 0.000000 1.000000 0.000000
vn 0.904736 0.000000 0.425973
vn 0.942163 0.000000 0.335154
vn 0.942163 0.000000 0.335154
vn 0.904736 0.000000 0.425973
vn 0.000000 1.000000 0.000000
vn 0.000000 1.000000 0.000000
vn -0.385804 0.901606 -0.195606
vn -0.399370 0.902964 -0.158617
vn -0.570847 0.767344 -0.292090
vn -0.593176 0.769415 -0.236943
vn -0.925375 0.000214 -0.379052
vn -0.887064 0.000707 -0.461646
vn -0.887124 0.000706 -0.461530
vn -0.925375 0.000214 -0.379052
vn 0.000000 -1.000000 0.000000
vn 0.000000 -1.000000 0.000000
vn 0.000000 -1.000000 0.000000
vn 0.000000 -1.000000 0.000000
vn 0.000000 -1.000000 0.000000
vn 0.000000 -1.000000 0.000000
vn 0.968858 0.000000 0.247616
vn 0.968858 0.000000 0.247616
vn 0.000000 -1.000000 0.000000
vn 0.000000 -1.000000 0.000000
vn 0.000000 -1.000000 0.000000
vn -0.956940 0.000000 -0.290285
vn -0.956940 0.000000 -0.290285
vn -0.407382 0.905289 -0.120384
vn -0.609508 0.771951 -0.180533
vn 0.000000 1.000000 0.000000
vn 0.986616 0.000000 0.163059
vn 0.986616 0.000000 0.163059
vn 0.000000 -1.000000 0.000000
vn 0.000000 -1.000000 0.000000
vn 0.000000 -1.000000 0.000000
vn -0.980785 0.000000 -0.195090
vn -0.980785 0.000000 -0.195090
vn -0.412628 0.907271 -0.081227
vn -0.621952 0.773416 -0.122490
vn 0.000000 1.000000 0.000000
vn 0.854567 0.000000 0.519341
vn 0.854567 0.000000 0.519341
vn 0.000000 -1.000000 0.000000
vn 0.000000 -1.000000 0.000000
vn 0.000000 -1.000000 0.000000
vn -0.839528 0.001021 -0.543316
vn -0.839684 0.001021 -0.543075
vn -0.365433 0.901533 -0.231725
vn -0.539823 0.767173 -0.346463
vn 0.000000 1.000000 0.000000
vn 0.519218 0.000000 0.854642
vn 0.519218 0.000000 0.854642
vn 0.000000 -1.000000 0.000000
vn 0.000000 -1.000000 0.000000
vn 0.000000 -1.000000 0.000000
vn -0.523496 -0.003315 -0.852022
vn -0.524545 -0.003292 -0.851377
vn -0.216431 0.911651 -0.349356
vn -0.324887 0.782405 -0.531311
vn 0.000000 1.000000 0.000000
vn 0.142967 0.000000 0.989727
vn 0.142967 0.000000 0.989727
vn 0.000000 -1.000000 0.000000
vn 0.000000 -1.000000 0.000000
vn 0.000000 -1.000000 0.000000
vn -0.121219 0.000000 -0.992626
vn -0.121219 0.000000 -0.992626
vn -0.051136 0.913039 -0.404653
vn -0.079994 0.777396 -0.623904
vn 0.000000 1.000000 0.000000
s 1
g InsideBend
usemtl initialShadingGroup
f 1/15/1 4/16/2 5/17/3 2/18/4
f 2/18/4 5/17/3 6/14/5 3/13/6
s 2
f 4/4/7 55/83/8 60/89/9 5/3/10
f 5/3/10 60/89/9 59/88/11 6/6/12
s 3
f 56/84/13 1/1/14 2/2/15 57/85/16
f 57/86/16 2/20/15 3/5/17 58/87/18
s 4
f 3/5/19 6/6/20 59/88/21 58/87/22
s 5
f 55/83/23 4/4/24 1/1/25 56/84/26
s 6
f 7/21/27 79/111/28 84/117/29 8/22/30
f 8/22/30 84/117/29 83/116/31 9/25/32
s 7
f 13/27/33 16/30/34 17/29/35 14/28/36
f 14/28/36 17/29/35 18/32/37 15/31/38
s 8
f 80/112/39 10/36/40 11/35/41 81/113/42
f 81/114/42 11/40/41 12/39/43 82/115/44
s 9
f 12/39/45 9/25/46 83/116/47 82/115/48
s 10
f 79/111/49 7/21/50 10/36/51 80/112/52
s 5
f 10/9/53 7/11/54 74/105/55 73/104/56
s 3
f 10/9/57 73/104/58 78/109/59 11/19/60
f 11/8/60 78/110/59 77/108/61 12/10/62
s 4
f 76/107/63 9/7/64 12/10/65 77/108/66
s 2
f 75/106/67 8/12/68 9/7/69 76/107/70
f 74/105/71 7/11/72 8/12/68 75/106/67
s 10
f 16/33/73 13/24/74 98/133/75 97/132/76
s 8
f 16/33/77 97/132/78 102/137/79 17/34/80
f 17/37/80 102/138/79 101/136/81 18/38/82
s 9
f 100/135/83 15/26/84 18/38/85 101/136/86
s 6
f 99/134/87 14/23/88 15/26/89 100/135/90
f 98/133/91 13/24/92 14/23/88 99/134/87
s 10
f 91/125/93 25/48/94 26/49/95 92/126/96
s 6
f 25/48/97 91/125/98 96/131/99 30/54/100
f 30/54/100 96/131/99 95/130/101 29/53/102
s 9
f 29/53/103 95/130/104 94/129/105 28/52/106
s 8
f 93/128/107 27/51/108 28/52/109 94/129/110
f 92/126/111 26/49/112 27/50/108 93/127/107
s 10
f 25/48/94 86/119/113 85/118/114 26/49/95
s 8
f 26/49/112 85/118/115 90/123/116 27/50/108
f 27/51/108 90/124/116 89/122/117 28/52/109
s 9
f 88/121/118 29/53/103 28/52/106 89/122/119
s 6
f 87/120/120 30/54/100 29/53/102 88/121/121
f 86/119/122 25/48/97 30/54/100 87/120/120
s 5
f 67/97/123 19/41/124 20/42/125 68/98/126
s 2
f 19/41/127 67/97/128 72/103/129 24/47/130
f 24/47/130 72/103/129 71/102/131 23/46/132
s 4
f 23/46/133 71/102/134 70/101/135 22/45/136
s 3
f 69/100/137 21/44/138 22/45/139 70/101/140
f 68/98/141 20/42/142 21/43/138 69/99/137
s 5
f 19/41/124 62/91/143 61/90/144 20/42/125
s 3
f 20/42/142 61/90/145 66/95/146 21/43/138
f 21/44/138 66/96/146 65/94/147 22/45/139
s 4
f 64/93/148 23/46/133 22/45/136 65/94/149
s 2
f 63/92/150 24/47/130 23/46/132 64/93/151
f 62/91/152 19/41/127 24/47/130 63/92/150
s 5
f 49/76/153 55/83/23 56/84/26 50/77/154
s 3
f 50/77/155 56/84/13 57/85/16 51/78/156
f 51/79/156 57/86/16 58/87/18 52/80/157
s 4
f 59/88/21 53/81/158 52/80/159 58/87/22
s 2
f 60/89/9 54/82/160 53/81/161 59/88/11
f 55/83/8 49/76/162 54/82/160 60/89/9
s 5
f 62/91/143 49/76/153 50/77/154 61/90/144
s 2
f 49/76/162 62/91/152 63/92/150 54/82/160
f 54/82/160 63/92/150 64/93/151 53/81/161
s 4
f 53/81/158 64/93/148 65/94/149 52/80/159
s 3
f 66/96/146 51/79/156 52/80/157 65/94/147
f 61/90/145 50/77/155 51/78/156 66/95/146
s 5
f 44/70/163 67/97/123 68/98/126 43/69/164
s 3
f 43/69/165 68/98/141 69/99/137 48/74/166
f 48/75/166 69/100/137 70/101/140 47/73/167
s 4
f 71/102/134 46/72/168 47/73/169 70/101/135
s 2
f 72/103/129 45/71/170 46/72/171 71/102/131
f 67/97/128 44/70/172 45/71/170 72/103/129
s 5
f 74/105/55 44/70/163 43/69/164 73/104/56
s 2
f 44/70/172 74/105/71 75/106/67 45/71/170
f 45/71/170 75/106/67 76/107/70 46/72/171
s 4
f 46/72/168 76/107/63 77/108/66 47/73/169
s 3
f 78/110/59 48/75/166 47/73/167 77/108/61
f 73/104/58 43/69/165 48/74/166 78/109/59
s 10
f 37/62/173 79/111/49 80/112/52 38/63/174
s 8
f 38/63/175 80/112/39 81/113/42 39/64/176
f 39/65/176 81/114/42 82/115/44 40/66/177
s 9
f 83/116/47 41/67/178 40/66/179 82/115/48
s 6
f 84/117/29 42/68/180 41/67/181 83/116/31
f 79/111/28 37/62/182 42/68/180 84/117/29
s 10
f 86/119/113 37/62/173 38/63/174 85/118/114
s 6
f 37/62/182 86/119/122 87/120/120 42/68/180
f 42/68/180 87/120/120 88/121/121 41/67/181
s 9
f 41/67/178 88/121/118 89/122/119 40/66/179
s 8
f 90/124/116 39/65/176 40/66/177 89/122/117
f 85/118/115 38/63/175 39/64/176 90/123/116
s 10
f 32/56/183 91/125/93 92/126/96 31/55/184
s 8
f 31/55/185 92/126/111 93/127/107 36/60/186
f 36/61/186 93/128/107 94/129/110 35/59/187
s 9
f 95/130/104 34/58/188 35/59/189 94/129/105
s 6
f 96/131/99 33/57/190 34/58/191 95/130/101
f 91/125/98 32/56/192 33/57/190 96/131/99
s 10
f 98/133/75 32/56/183 31/55/184 97/132/76
s 6
f 32/56/192 98/133/91 99/134/87 33/57/190
f 33/57/190 99/134/87 100/135/90 34/58/191
s 9
f 34/58/188 100/135/83 101/136/86 35/59/189
s 8
f 102/138/79 36/61/186 35/59/187 101/136/81
f 97/132/78 31/55/185 36/60/186 102/137/79
