# This file uses centimeters as units for non-parametric coordinates.

mtllib OutsideCorner_LP.mtl
g default
v -1.000000 0.000000 0.000000
v -0.500000 0.000000 0.000000
v 0.000000 0.000000 0.000000
v -1.000000 1.000000 0.000000
v -0.500000 1.000000 0.000000
v 0.000000 0.590666 0.000000
v -1.000000 1.000000 -4.000000
v -0.504600 1.000000 -3.500000
v 0.000000 0.590666 -3.000000
v -1.000000 0.000000 -4.000000
v -0.504600 0.000000 -3.500000
v 0.000000 0.000000 -3.000000
v 3.000000 1.000000 -4.000000
v 3.000000 1.000000 -3.500000
v 3.000000 0.590666 -3.000000
v 3.000000 0.000000 -4.000000
v 3.000000 0.000000 -3.500000
v 3.000000 0.000000 -3.000000
vt 0.476785 0.019544
vt 0.399034 0.019544
vt 0.174187 0.242264
vt 0.239210 0.242264
vt 0.902178 0.025915
vt 0.812837 0.025915
vt 0.812837 0.479678
vt 0.977805 0.479678
vt 0.476785 0.486050
vt 0.902178 0.479678
vt 0.239210 0.695585
vt 0.174187 0.757239
vt 0.319681 0.027090
vt 0.319681 0.147866
vt 0.114323 0.027090
vt 0.114323 0.233074
vt 0.217143 0.233074
vt 0.217143 0.027090
vt 0.399034 0.486050
vt 0.977805 0.025915
vt 0.569261 0.534855
vt 0.792725 0.697777
vt 0.703894 0.615361
vt 0.569261 0.966318
vt 0.819207 0.541226
vt 0.819207 0.959947
vt 0.317567 0.988391
vt 0.210366 0.988391
vt 0.210366 0.774032
vt 0.317567 0.774032
vt 0.103131 0.900755
vt 0.103131 0.774032
vt 0.425440 0.966318
vt 0.353529 0.966318
vt 0.353529 0.534855
vt 0.425440 0.534855
vt 0.971435 0.959947
vt 0.901649 0.959947
vt 0.901649 0.541226
vt 0.971435 0.541226
vt 0.323652 0.242264
vt 0.323652 0.632938
vt 0.045018 0.757239
vt 0.045018 0.242264
vt 0.703894 0.032102
vt 0.792725 0.032102
vt 0.615063 0.531413
vt 0.615063 0.032102
vn 0.000000 0.000000 1.000000
vn 0.000000 0.000000 1.000000
vn 0.000000 0.000000 1.000000
vn 0.000000 0.000000 1.000000
vn 0.000000 0.000000 1.000000
vn 0.000000 0.000000 1.000000
vn 0.000000 1.000000 0.000000
vn 0.355746 0.934583 -0.000252
vn 0.201870 0.979412 -0.000143
vn 0.000000 1.000000 0.000000
vn 0.631855 0.775086 -0.000447
vn 0.631855 0.775086 -0.000447
vn 0.000000 -1.000000 0.000000
vn 0.000000 -1.000000 0.000000
vn 0.000000 -1.000000 0.000000
vn 0.000000 -1.000000 0.000000
vn 0.000000 -1.000000 0.000000
vn 0.000000 -1.000000 0.000000
vn 1.000000 0.000000 0.000000
vn 1.000000 0.000000 0.000000
vn 1.000000 0.000000 0.000000
vn 1.000000 0.000000 0.000000
vn -1.000000 0.000000 0.000000
vn -1.000000 0.000000 0.000000
vn -1.000000 0.000000 0.000000
vn -1.000000 0.000000 0.000000
vn 0.000000 1.000000 0.000000
vn 0.000000 0.979579 0.201061
vn 0.000000 0.934748 0.355312
vn 0.000000 1.000000 0.000000
vn 0.000000 0.773773 0.633463
vn 0.000000 0.773773 0.633463
vn 1.000000 0.000000 0.000000
vn 1.000000 0.000000 0.000000
vn 1.000000 0.000000 0.000000
vn 1.000000 0.000000 0.000000
vn 1.000000 0.000000 0.000000
vn 1.000000 0.000000 0.000000
vn 0.000000 -1.000000 0.000000
vn 0.000000 -1.000000 0.000000
vn 0.000000 -1.000000 0.000000
vn 0.000000 -1.000000 0.000000
vn 0.000000 -1.000000 0.000000
vn 0.000000 -1.000000 0.000000
vn 0.000000 0.000000 1.000000
vn 0.000000 0.000000 1.000000
vn 0.000000 0.000000 1.000000
vn 0.000000 0.000000 1.000000
vn 0.000000 0.000000 -1.000000
vn 0.000000 0.000000 -1.000000
vn 0.000000 0.000000 -1.000000
vn 0.000000 0.000000 -1.000000
s 1
g OuterCorner
usemtl initialShadingGroup
f 1/15/1 2/18/2 5/17/3 4/16/4
f 2/18/2 3/13/5 6/14/6 5/17/3
s 2
f 4/3/7 5/4/8 8/11/9 7/12/10
f 5/4/8 6/41/11 9/42/12 8/11/9
s 3
f 10/9/13 11/19/14 2/2/15 1/1/16
f 11/8/14 12/10/17 3/5/18 2/20/15
s off
f 3/5/19 12/10/20 9/7/21 6/6/22
f 10/43/23 1/44/24 4/3/25 7/12/26
s 4
f 7/22/27 8/23/28 14/45/29 13/46/30
f 8/23/28 9/47/31 15/48/32 14/45/29
s 5
f 13/27/33 14/28/34 17/29/35 16/30/36
f 14/28/34 15/31/37 18/32/38 17/29/35
s 6
f 16/33/39 17/34/40 11/35/41 10/36/42
f 17/37/40 18/38/43 12/39/44 11/40/41
s off
f 12/39/45 18/38/46 15/26/47 9/25/48
f 16/33/49 10/36/50 7/21/51 13/24/52
